# xmcd CD database file generated by OrangeCD 5.2
#
# Track frame offsets:
#	162
#	15755
#	35710
#	53397
#	71675
#	88785
#	102792
#	121975
#
# Disc length: 1884 seconds
#
# Revision: 0
# Processed by: cddbd v1.5.1PL0 Copyright (c) Steve Scherf et al.
# Submitted via: OrangeCD 5.2
#
DISCID=59075a08
DTITLE=Clay Hammond - Streets Will Love You
DYEAR=1989
DGENRE=Blues
TTITLE0=Streets Will Love You
TTITLE1=License To Steal
TTITLE2=Too Many Irons In The Fire
TTITLE3=I Know What Love Is
TTITLE4=They Don't Makeum No More
TTITLE5=Ask Me For What You Want
TTITLE6=Part Time Love
TTITLE7=Monkey
EXTD=
EXTT0=
EXTT1=
EXTT2=
EXTT3=
EXTT4=
EXTT5=
EXTT6=
EXTT7=
PLAYORDER=
